<svg width="24" height="36" viewBox="0 0 24 36" fill="none" xmlns="http://www.w3.org/2000/svg">
<path d="M11 32.75C5.62 32.75 1.25 28.38 1.25 23C1.25 17.62 5.62 13.25 11 13.25C11.41 13.25 11.75 13.59 11.75 14C11.75 14.41 11.41 14.75 11 14.75C6.45 14.75 2.75 18.45 2.75 23C2.75 27.55 6.45 31.25 11 31.25C15.55 31.25 19.25 27.55 19.25 23C19.25 22.59 19.59 22.25 20 22.25C20.41 22.25 20.75 22.59 20.75 23C20.75 28.38 16.38 32.75 11 32.75Z" fill="#292D32"/>
<path d="M20.1601 34.79C20.0801 34.79 20.0001 34.78 19.9301 34.77C19.4601 34.71 18.6101 34.39 18.1301 32.96C17.8801 32.21 17.9701 31.46 18.3801 30.89C18.7901 30.32 19.4801 30 20.2701 30C21.2901 30 22.0901 30.39 22.4501 31.08C22.8101 31.77 22.7101 32.65 22.1401 33.5C21.4301 34.57 20.6601 34.79 20.1601 34.79ZM19.5601 32.49C19.7301 33.01 19.9701 33.27 20.1301 33.29C20.2901 33.31 20.5901 33.12 20.9001 32.67C21.1901 32.24 21.2101 31.93 21.1401 31.79C21.0701 31.65 20.7901 31.5 20.2701 31.5C19.9601 31.5 19.7301 31.6 19.6001 31.77C19.4801 31.94 19.4601 32.2 19.5601 32.49Z" fill="#292D32"/>
<path d="M17.2004 22.7499C15.6304 22.7499 14.1304 22.0799 13.0704 20.8999C12.1504 19.8699 11.6504 18.5599 11.6504 17.1999C11.6504 14.1399 14.1404 11.6499 17.2004 11.6499C18.7404 11.6499 20.1704 12.2699 21.2404 13.3899C21.2704 13.4199 21.3004 13.4599 21.3204 13.4899C22.2604 14.5499 22.7504 15.8399 22.7504 17.1899C22.7504 20.2599 20.2604 22.7499 17.2004 22.7499ZM17.2004 13.1499C14.9704 13.1499 13.1504 14.9699 13.1504 17.1999C13.1504 18.1899 13.5204 19.1499 14.1904 19.8999C14.9604 20.7599 16.0604 21.2499 17.2004 21.2499C19.4304 21.2499 21.2504 19.4299 21.2504 17.1999C21.2504 16.1699 20.8604 15.1899 20.1404 14.4299C20.1204 14.4099 20.1004 14.3799 20.0804 14.3599C19.3104 13.5799 18.2904 13.1499 17.2004 13.1499Z" fill="#292D32"/>
<path d="M18.4799 19.2899C18.2899 19.2899 18.0999 19.22 17.9499 19.07L15.4099 16.53C15.1199 16.24 15.1199 15.7599 15.4099 15.4699C15.6999 15.1799 16.1799 15.1799 16.4699 15.4699L19.0099 18.01C19.2999 18.3 19.2999 18.78 19.0099 19.07C18.8699 19.21 18.6699 19.2899 18.4799 19.2899Z" fill="#292D32"/>
<path d="M15.9193 19.32C15.7293 19.32 15.5394 19.2499 15.3894 19.0999C15.0994 18.8099 15.0994 18.3299 15.3894 18.0399L17.9294 15.5C18.2194 15.21 18.6994 15.21 18.9894 15.5C19.2794 15.79 19.2794 16.27 18.9894 16.56L16.4494 19.0999C16.2994 19.2399 16.1093 19.32 15.9193 19.32Z" fill="#292D32"/>
</svg>
