<svg width="32" height="32" viewBox="0 0 32 32" fill="none" xmlns="http://www.w3.org/2000/svg">
<path d="M18.0693 24.2025C17.9291 24.5878 17.4933 24.791 17.1081 24.6508L10.5302 22.2566C10.1449 22.1164 9.94173 21.6806 10.082 21.2954C10.2222 20.9101 10.658 20.7069 11.0432 20.8471L17.6211 23.2412C18.0064 23.3815 18.2096 23.8172 18.0693 24.2025Z" fill="#292D32"/>
<path d="M11.1072 21.4024C10.3513 23.4792 8.05705 24.549 5.98033 23.7931C3.90361 23.0373 2.83377 20.743 3.58964 18.6663C4.3455 16.5896 6.63977 15.5197 8.71649 16.2756C10.7932 17.0315 11.863 19.3257 11.1072 21.4024ZM4.99918 19.1793C4.52719 20.4761 5.19658 21.9116 6.49336 22.3836C7.79013 22.8556 9.22565 22.1862 9.69764 20.8894C10.1696 19.5926 9.50024 18.1571 8.20346 17.6851C6.90668 17.2131 5.47117 17.8825 4.99918 19.1793Z" fill="#292D32"/>
<path d="M23.7075 26.2546C22.9995 28.1997 20.8462 29.2038 18.901 28.4958C16.9559 27.7879 15.9518 25.6346 16.6598 23.6894C17.3678 21.7442 19.521 20.7402 21.4662 21.4481C23.4114 22.1561 24.4154 24.3094 23.7075 26.2546ZM18.0693 24.2024C17.6452 25.3677 18.2489 26.6622 19.4141 27.0863C20.5793 27.5104 21.8738 26.9067 22.2979 25.7415C22.722 24.5763 22.1184 23.2818 20.9532 22.8577C19.7879 22.4336 18.4934 23.0372 18.0693 24.2024Z" fill="#292D32"/>
<path d="M28.4958 13.0989C27.7878 15.0441 25.6345 16.0482 23.6894 15.3402C21.7442 14.6322 20.7401 12.4789 21.4481 10.5338C22.1561 8.58861 24.3094 7.58452 26.2545 8.2925C28.1997 9.00048 29.2038 11.1538 28.4958 13.0989ZM22.8576 11.0468C22.4335 12.212 23.0372 13.5065 24.2024 13.9307C25.3676 14.3548 26.6622 13.7511 27.0863 12.5859C27.5104 11.4207 26.9067 10.1261 25.7415 9.70204C24.5763 9.27793 23.2817 9.88158 22.8576 11.0468Z" fill="#292D32"/>
<path d="M22.6113 11.8403C22.5053 12.1316 22.2276 12.3391 21.8986 12.3365C19.6756 12.3042 17.6734 13.6825 16.9107 15.7781C16.9073 15.7874 16.9073 15.7874 16.9039 15.7968L15.7402 19.0234C15.7367 19.0328 15.7367 19.0328 15.7333 19.0422C14.9843 21.1001 12.9403 22.3888 10.76 22.1805C10.35 22.1377 10.0468 21.7719 10.0896 21.3618C10.1324 20.9518 10.4982 20.6486 10.9083 20.6914C12.4102 20.8337 13.8167 19.9515 14.3332 18.5326L14.3366 18.5232L15.5003 15.2966C15.5038 15.2872 15.5072 15.2778 15.5106 15.2684C16.4888 12.5809 19.0618 10.8038 21.9298 10.8473C22.3442 10.8492 22.6764 11.1936 22.6652 11.6045C22.6472 11.6831 22.6387 11.7651 22.6113 11.8403Z" fill="#292D32"/>
</svg>
